<svg xmlns="http://www.w3.org/2000/svg" width="480" height="480"><defs ><g id="straight_out_000" transform="rotate(0)"><polyline stroke="#000000" stroke-width="0.1" points="1 2 2 1 2 -1 1 -2 0 -1 0 1 -1 2" fill="#00000000"/><polyline stroke="#000000" stroke-width="0.1" points="-1 -2 -2 -1 -2 1 -1 2 0 1 0 -1 1 -2" fill="#ffffff00"/></g><g id="straight_in_000" transform="rotate(0)"><polyline stroke="#000000" stroke-width="0.1" points="1 2 2 1 2 -1 1 -2 0 -1 0 1 -1 2" fill="#ffffff00"/><polyline stroke="#000000" stroke-width="0.1" points="-1 -2 -2 -1 -2 1 -1 2 0 1 0 -1 1 -2" fill="#00000000"/></g><g id="corner_out_000" transform="rotate(0)"><polyline stroke="#000000" stroke-width="0.1" points="-1 -2 -2 -1 -2 1 -1 2 1 2 2 1 1 0 0 0 0 -1 1 -2" fill="#00000000"/><polyline stroke="#000000" stroke-width="0.1" points="2 -1 1 -2 0 -1 2 1" fill="#ffffff00"/></g><g id="corner_in_000" transform="rotate(0)"><polyline stroke="#000000" stroke-width="0.1" points="-1 -2 -2 -1 -2 1 -1 2 1 2 2 1 1 0 0 0 0 -1 1 -2" fill="#ffffff00"/><polyline stroke="#000000" stroke-width="0.1" points="2 -1 1 -2 0 -1 2 1" fill="#00000000"/></g><g id="straight_out_090" transform="rotate(90)"><polyline stroke="#000000" stroke-width="0.1" points="1 2 2 1 2 -1 1 -2 0 -1 0 1 -1 2" fill="#00000000"/><polyline stroke="#000000" stroke-width="0.1" points="-1 -2 -2 -1 -2 1 -1 2 0 1 0 -1 1 -2" fill="#ffffff00"/></g><g id="straight_in_090" transform="rotate(90)"><polyline stroke="#000000" stroke-width="0.1" points="1 2 2 1 2 -1 1 -2 0 -1 0 1 -1 2" fill="#ffffff00"/><polyline stroke="#000000" stroke-width="0.1" points="-1 -2 -2 -1 -2 1 -1 2 0 1 0 -1 1 -2" fill="#00000000"/></g><g id="corner_out_090" transform="rotate(90)"><polyline stroke="#000000" stroke-width="0.1" points="-1 -2 -2 -1 -2 1 -1 2 1 2 2 1 1 0 0 0 0 -1 1 -2" fill="#00000000"/><polyline stroke="#000000" stroke-width="0.1" points="2 -1 1 -2 0 -1 2 1" fill="#ffffff00"/></g><g id="corner_in_090" transform="rotate(90)"><polyline stroke="#000000" stroke-width="0.1" points="-1 -2 -2 -1 -2 1 -1 2 1 2 2 1 1 0 0 0 0 -1 1 -2" fill="#ffffff00"/><polyline stroke="#000000" stroke-width="0.1" points="2 -1 1 -2 0 -1 2 1" fill="#00000000"/></g><g id="straight_out_180" transform="rotate(180)"><polyline stroke="#000000" stroke-width="0.1" points="1 2 2 1 2 -1 1 -2 0 -1 0 1 -1 2" fill="#00000000"/><polyline stroke="#000000" stroke-width="0.1" points="-1 -2 -2 -1 -2 1 -1 2 0 1 0 -1 1 -2" fill="#ffffff00"/></g><g id="straight_in_180" transform="rotate(180)"><polyline stroke="#000000" stroke-width="0.1" points="1 2 2 1 2 -1 1 -2 0 -1 0 1 -1 2" fill="#ffffff00"/><polyline stroke="#000000" stroke-width="0.1" points="-1 -2 -2 -1 -2 1 -1 2 0 1 0 -1 1 -2" fill="#00000000"/></g><g id="corner_out_180" transform="rotate(180)"><polyline stroke="#000000" stroke-width="0.1" points="-1 -2 -2 -1 -2 1 -1 2 1 2 2 1 1 0 0 0 0 -1 1 -2" fill="#00000000"/><polyline stroke="#000000" stroke-width="0.1" points="2 -1 1 -2 0 -1 2 1" fill="#ffffff00"/></g><g id="corner_in_180" transform="rotate(180)"><polyline stroke="#000000" stroke-width="0.1" points="-1 -2 -2 -1 -2 1 -1 2 1 2 2 1 1 0 0 0 0 -1 1 -2" fill="#ffffff00"/><polyline stroke="#000000" stroke-width="0.1" points="2 -1 1 -2 0 -1 2 1" fill="#00000000"/></g><g id="straight_out_270" transform="rotate(270)"><polyline stroke="#000000" stroke-width="0.1" points="1 2 2 1 2 -1 1 -2 0 -1 0 1 -1 2" fill="#00000000"/><polyline stroke="#000000" stroke-width="0.1" points="-1 -2 -2 -1 -2 1 -1 2 0 1 0 -1 1 -2" fill="#ffffff00"/></g><g id="straight_in_270" transform="rotate(270)"><polyline stroke="#000000" stroke-width="0.1" points="1 2 2 1 2 -1 1 -2 0 -1 0 1 -1 2" fill="#ffffff00"/><polyline stroke="#000000" stroke-width="0.1" points="-1 -2 -2 -1 -2 1 -1 2 0 1 0 -1 1 -2" fill="#00000000"/></g><g id="corner_out_270" transform="rotate(270)"><polyline stroke="#000000" stroke-width="0.1" points="-1 -2 -2 -1 -2 1 -1 2 1 2 2 1 1 0 0 0 0 -1 1 -2" fill="#00000000"/><polyline stroke="#000000" stroke-width="0.1" points="2 -1 1 -2 0 -1 2 1" fill="#ffffff00"/></g><g id="corner_in_270" transform="rotate(270)"><polyline stroke="#000000" stroke-width="0.1" points="-1 -2 -2 -1 -2 1 -1 2 1 2 2 1 1 0 0 0 0 -1 1 -2" fill="#ffffff00"/><polyline stroke="#000000" stroke-width="0.1" points="2 -1 1 -2 0 -1 2 1" fill="#00000000"/></g></defs><g transform="translate(240 240) scale(20)"><use href="#corner_out_090" x="-4.0" y="-4.0"/><use href="#corner_out_270" x="4.0" y="4.0"/><use href="#corner_out_000" x="-4.0" y="4.0"/><use href="#corner_out_180" x="4.0" y="-4.0"/><use href="#straight_out_000" x="-4.0" y="0.0"/><use href="#straight_in_000" x="4.0" y="0.0"/><use href="#straight_out_090" x="0.0" y="-4.0"/><use href="#straight_in_090" x="0.0" y="4.0"/><use href="#corner_in_090" x="-8.0" y="-8.0"/><use href="#corner_in_270" x="8.0" y="8.0"/><use href="#corner_in_000" x="-8.0" y="8.0"/><use href="#corner_in_180" x="8.0" y="-8.0"/><use href="#straight_in_000" x="-8.0" y="-4.0"/><use href="#straight_out_000" x="8.0" y="-4.0"/><use href="#straight_in_090" x="-4.0" y="-8.0"/><use href="#straight_out_090" x="-4.0" y="8.0"/><use href="#straight_out_000" x="-8.0" y="0.0"/><use href="#straight_in_000" x="8.0" y="0.0"/><use href="#straight_out_090" x="0.0" y="-8.0"/><use href="#straight_in_090" x="0.0" y="8.0"/><use href="#straight_in_000" x="-8.0" y="4.0"/><use href="#straight_out_000" x="8.0" y="4.0"/><use href="#straight_in_090" x="4.0" y="-8.0"/><use href="#straight_out_090" x="4.0" y="8.0"/></g></svg>
