<svg xmlns="http://www.w3.org/2000/svg" width="400" height="400"><defs ><g id="straight_out_000" transform="rotate(0)"><polyline stroke="#000000" stroke-width="0.1" points="1 2 2 1 2 -1 1 -2 0 -1 0 1 -1 2" fill="#dd7777"/><polyline stroke="#000000" stroke-width="0.1" points="-1 -2 -2 -1 -2 1 -1 2 0 1 0 -1 1 -2" fill="#FFB60C"/></g><g id="straight_in_000" transform="rotate(0)"><polyline stroke="#000000" stroke-width="0.1" points="1 2 2 1 2 -1 1 -2 0 -1 0 1 -1 2" fill="#FFB60C"/><polyline stroke="#000000" stroke-width="0.1" points="-1 -2 -2 -1 -2 1 -1 2 0 1 0 -1 1 -2" fill="#dd7777"/></g><g id="corner_out_000" transform="rotate(0)"><polyline stroke="#000000" stroke-width="0.1" points="-1 -2 -2 -1 -2 1 -1 2 1 2 2 1 1 0 0 0 0 -1 1 -2" fill="#dd7777"/><polyline stroke="#000000" stroke-width="0.1" points="2 -1 1 -2 0 -1 2 1" fill="#FFB60C"/></g><g id="corner_in_000" transform="rotate(0)"><polyline stroke="#000000" stroke-width="0.1" points="-1 -2 -2 -1 -2 1 -1 2 1 2 2 1 1 0 0 0 0 -1 1 -2" fill="#FFB60C"/><polyline stroke="#000000" stroke-width="0.1" points="2 -1 1 -2 0 -1 2 1" fill="#dd7777"/></g><g id="straight_out_090" transform="rotate(90)"><polyline stroke="#000000" stroke-width="0.1" points="1 2 2 1 2 -1 1 -2 0 -1 0 1 -1 2" fill="#dd7777"/><polyline stroke="#000000" stroke-width="0.1" points="-1 -2 -2 -1 -2 1 -1 2 0 1 0 -1 1 -2" fill="#FFB60C"/></g><g id="straight_in_090" transform="rotate(90)"><polyline stroke="#000000" stroke-width="0.1" points="1 2 2 1 2 -1 1 -2 0 -1 0 1 -1 2" fill="#FFB60C"/><polyline stroke="#000000" stroke-width="0.1" points="-1 -2 -2 -1 -2 1 -1 2 0 1 0 -1 1 -2" fill="#dd7777"/></g><g id="corner_out_090" transform="rotate(90)"><polyline stroke="#000000" stroke-width="0.1" points="-1 -2 -2 -1 -2 1 -1 2 1 2 2 1 1 0 0 0 0 -1 1 -2" fill="#dd7777"/><polyline stroke="#000000" stroke-width="0.1" points="2 -1 1 -2 0 -1 2 1" fill="#FFB60C"/></g><g id="corner_in_090" transform="rotate(90)"><polyline stroke="#000000" stroke-width="0.1" points="-1 -2 -2 -1 -2 1 -1 2 1 2 2 1 1 0 0 0 0 -1 1 -2" fill="#FFB60C"/><polyline stroke="#000000" stroke-width="0.1" points="2 -1 1 -2 0 -1 2 1" fill="#dd7777"/></g><g id="straight_out_180" transform="rotate(180)"><polyline stroke="#000000" stroke-width="0.1" points="1 2 2 1 2 -1 1 -2 0 -1 0 1 -1 2" fill="#dd7777"/><polyline stroke="#000000" stroke-width="0.1" points="-1 -2 -2 -1 -2 1 -1 2 0 1 0 -1 1 -2" fill="#FFB60C"/></g><g id="straight_in_180" transform="rotate(180)"><polyline stroke="#000000" stroke-width="0.1" points="1 2 2 1 2 -1 1 -2 0 -1 0 1 -1 2" fill="#FFB60C"/><polyline stroke="#000000" stroke-width="0.1" points="-1 -2 -2 -1 -2 1 -1 2 0 1 0 -1 1 -2" fill="#dd7777"/></g><g id="corner_out_180" transform="rotate(180)"><polyline stroke="#000000" stroke-width="0.1" points="-1 -2 -2 -1 -2 1 -1 2 1 2 2 1 1 0 0 0 0 -1 1 -2" fill="#dd7777"/><polyline stroke="#000000" stroke-width="0.1" points="2 -1 1 -2 0 -1 2 1" fill="#FFB60C"/></g><g id="corner_in_180" transform="rotate(180)"><polyline stroke="#000000" stroke-width="0.1" points="-1 -2 -2 -1 -2 1 -1 2 1 2 2 1 1 0 0 0 0 -1 1 -2" fill="#FFB60C"/><polyline stroke="#000000" stroke-width="0.1" points="2 -1 1 -2 0 -1 2 1" fill="#dd7777"/></g><g id="straight_out_270" transform="rotate(270)"><polyline stroke="#000000" stroke-width="0.1" points="1 2 2 1 2 -1 1 -2 0 -1 0 1 -1 2" fill="#dd7777"/><polyline stroke="#000000" stroke-width="0.1" points="-1 -2 -2 -1 -2 1 -1 2 0 1 0 -1 1 -2" fill="#FFB60C"/></g><g id="straight_in_270" transform="rotate(270)"><polyline stroke="#000000" stroke-width="0.1" points="1 2 2 1 2 -1 1 -2 0 -1 0 1 -1 2" fill="#FFB60C"/><polyline stroke="#000000" stroke-width="0.1" points="-1 -2 -2 -1 -2 1 -1 2 0 1 0 -1 1 -2" fill="#dd7777"/></g><g id="corner_out_270" transform="rotate(270)"><polyline stroke="#000000" stroke-width="0.1" points="-1 -2 -2 -1 -2 1 -1 2 1 2 2 1 1 0 0 0 0 -1 1 -2" fill="#dd7777"/><polyline stroke="#000000" stroke-width="0.1" points="2 -1 1 -2 0 -1 2 1" fill="#FFB60C"/></g><g id="corner_in_270" transform="rotate(270)"><polyline stroke="#000000" stroke-width="0.1" points="-1 -2 -2 -1 -2 1 -1 2 1 2 2 1 1 0 0 0 0 -1 1 -2" fill="#FFB60C"/><polyline stroke="#000000" stroke-width="0.1" points="2 -1 1 -2 0 -1 2 1" fill="#dd7777"/></g></defs><g transform="translate(200 200) scale(20)"><use href="#corner_out_090" x="-2.0" y="-2.0"/><use href="#corner_out_270" x="2.0" y="2.0"/><use href="#corner_in_000" x="-2.0" y="2.0"/><use href="#corner_in_180" x="2.0" y="-2.0"/><use href="#corner_in_090" x="-6.0" y="-6.0"/><use href="#corner_in_270" x="6.0" y="6.0"/><use href="#corner_out_000" x="-6.0" y="6.0"/><use href="#corner_out_180" x="6.0" y="-6.0"/><use href="#straight_in_000" x="-6.0" y="-2.0"/><use href="#straight_in_000" x="6.0" y="-2.0"/><use href="#straight_in_090" x="-2.0" y="-6.0"/><use href="#straight_in_090" x="-2.0" y="6.0"/><use href="#straight_out_000" x="-6.0" y="2.0"/><use href="#straight_out_000" x="6.0" y="2.0"/><use href="#straight_out_090" x="2.0" y="-6.0"/><use href="#straight_out_090" x="2.0" y="6.0"/></g></svg>
